<?xml version="1.0" encoding="UTF-8" standalone="no"?>
<!-- Created with Inkscape (http://www.inkscape.org/) -->

<svg
   xmlns:dc="http://purl.org/dc/elements/1.1/"
   xmlns:cc="http://creativecommons.org/ns#"
   xmlns:rdf="http://www.w3.org/1999/02/22-rdf-syntax-ns#"
   xmlns:svg="http://www.w3.org/2000/svg"
   xmlns="http://www.w3.org/2000/svg"
   xmlns:sodipodi="http://sodipodi.sourceforge.net/DTD/sodipodi-0.dtd"
   xmlns:inkscape="http://www.inkscape.org/namespaces/inkscape"
   width="210mm"
   height="297mm"
   viewBox="0 0 744.09448819 1052.3622047"
   id="svg2"
   version="1.1"
   inkscape:version="0.91 r13725"
   sodipodi:docname="pgAdmin3.svg">
  <defs
     id="defs4" />
  <sodipodi:namedview
     id="base"
     pagecolor="#ffffff"
     bordercolor="#666666"
     borderopacity="1.0"
     inkscape:pageopacity="0.0"
     inkscape:pageshadow="2"
     inkscape:zoom="0.24748737"
     inkscape:cx="481.98467"
     inkscape:cy="525.69177"
     inkscape:document-units="px"
     inkscape:current-layer="layer1"
     showgrid="false"
     inkscape:window-width="1280"
     inkscape:window-height="750"
     inkscape:window-x="0"
     inkscape:window-y="0"
     inkscape:window-maximized="1" />
  <metadata
     id="metadata7">
    <rdf:RDF>
      <cc:Work
         rdf:about="">
        <dc:format>image/svg+xml</dc:format>
        <dc:type
           rdf:resource="http://purl.org/dc/dcmitype/StillImage" />
        <dc:title></dc:title>
      </cc:Work>
    </rdf:RDF>
  </metadata>
  <g
     inkscape:label="Capa 1"
     inkscape:groupmode="layer"
     id="layer1">
    <path
       style="fill:#000000"
       d="m 167.4361,204.483 c 17.9786,-21.55948 94.5461,-18.8753 150.91053,-1.03883 30.76607,-21.60577 74.66411,-31.08971 119.57232,-7.23862 25.13549,-12.24049 57.09117,-7.92684 89.52165,-6.74517 49.7849,1.81401 73.3418,16.35244 91.8326,50.91158 11.633,21.74203 24.2887,41.30652 19.6154,65.92935 -8.4545,70.33905 -35.3775,172.9855 -78.7434,204.69322 l 34.0457,-6.24315 c 18.652,-5.81191 30.1611,-5.90952 38.8132,10.42144 l 1.7891,5.63416 c 8.0964,13.73221 -2.3786,27.46443 -16.4251,34.76808 l -93.01457,31.35547 c 4.69568,60.56325 -6.32292,86.84078 -22.34152,117.40402 l -1.50011,2.77425 c -22.86482,25.10444 -43.30108,30.92315 -72.59447,34.59901 l -7.16609,1.0299 c -35.34059,-3.85438 -42.10975,-11.28019 -54.59321,-32.27742 l -4.38889,-7.08302 c -10.37964,-18.9846 -14.33072,-34.39778 -11.85322,-54.81095 l 5.53435,-54.56771 c -35.63671,26.73768 -81.75287,13.98376 -98.19467,-6.94117 l -5.155,-9.3572 c -12.0626,29.13455 -49.1251,19.69766 -66.1877,3.83221 l -8.2646,-7.22348 C 131.3973,488.04876 108.432,409.6457 101.1809,315.52835 l -1.3919,-8.85517 c 6.7939,-40.08844 19.903,-89.46198 67.6471,-102.19018 z"
       id="rect3978"
       inkscape:connector-curvature="0"
       sodipodi:nodetypes="cccsscccccccccccccccccccccc" />
    <path
       style="fill:#ffffff"
       d="m 180.5923,220.78272 c 17.0275,-19.47148 89.5444,-17.04725 142.92715,-0.93823 29.13852,-19.51327 70.71432,-28.0787 113.24686,-6.53757 23.80581,-11.055 54.071,-7.15913 84.78589,-6.0919 47.1512,1.63832 69.462,14.76873 86.9746,45.98085 11.0176,19.63635 23.0038,37.30604 18.5778,59.54418 -4.1274,32.7448 -9.8995,82.39967 -29.0723,124.57202 -18.0236,39.64443 -49.2186,72.34423 -61.50559,88.29691 l 48.24459,-7.63851 c 17.6653,-5.24903 28.5656,-17.33718 36.76,-2.58786 l 1.6945,3.08849 c 7.6681,12.40227 -2.2528,20.80455 -15.5562,27.40084 l -88.09407,30.31874 c 4.44728,54.69778 -3.98843,86.43035 -19.15964,114.03357 l -1.42074,4.5056 c -21.65526,22.67303 -43.01043,33.92821 -70.75417,37.24807 l -6.787,0.9302 c -33.47105,-3.48114 -41.88212,-24.18772 -53.70519,-43.15137 l -4.15672,-6.39705 c -9.83055,-17.14595 0.42738,-43.06637 2.77383,-61.50264 l -0.75843,-43.28285 c -33.7515,24.14817 -83.42804,6.62946 -99.00017,-12.26892 l -4.8822,-8.45097 c -11.4245,26.31291 -46.5264,17.78997 -62.6863,3.46107 l -7.8274,-6.52389 C 146.4599,476.88548 124.7095,406.07566 117.8419,321.07346 l -1.3182,-7.99756 c 6.4345,-36.20591 18.85,-80.7977 64.0686,-92.29318 z"
       id="rect3978-4"
       inkscape:connector-curvature="0"
       sodipodi:nodetypes="cccsscsccccccccccccccccccccc" />
    <path
       style="fill:#204a87"
       d="m 178.8866,230.3622 c 39.0366,-18.86972 86.6188,-10.97048 125.65539,4 0.63513,0.24357 -10.26262,12.58692 -18.78838,26.19504 -7.54981,12.05041 -12.80801,25.52428 -12.89651,26.12011 l -6.7167,18.29269 -2.7988,18.8453 c -1.1937,8.03745 -0.3874,16.07489 -1.581,24.11234 l -1.6892,21.07738 c -0.1883,12.26225 2.0101,26.30374 2.0552,39.64025 0.052,15.31905 -2.0984,29.70795 -3.2695,39.40174 -0.1538,1.27333 1.2123,15.12281 1.6849,16.31515 6.373,16.07778 13.6031,33.94127 25.69036,41.80476 -5.76321,6.38518 -12.24066,13.84179 -17.28966,19.15554 l -25.2401,30.63897 c -4.3976,7.09342 -12.2007,12.45885 -20.816,12.40073 -0.2957,-0.002 -14.2575,-8.07276 -26.2351,-24.27528 -6.6566,-9.00444 -9.9096,-19.83822 -16.4028,-31.71812 -6.3834,-11.67919 -6.7724,-24.36945 -12.3977,-37.32658 -7.0357,-16.20591 -11.0882,-32.82929 -14.7899,-48.41411 l -13.3699,-56.28948 c -0.6415,-2.70095 -1.1054,-4.18606 -1.1198,-4.29158 l -4.254,-31.22556 -0.032,-28.14414 c 0,-2.68159 2.2597,-20.58832 10.6502,-38.17569 6.9845,-14.64029 18.5143,-29.03201 29.7228,-34.14055 2.6328,-1.19998 4.2278,-3.99891 4.2278,-3.99891 z"
       id="rect3996"
       inkscape:connector-curvature="0"
       sodipodi:nodetypes="cssccsccssscccssssssscssscc" />
    <path
       style="fill:#204a87"
       d="m 525.45801,223.79077 28.65539,8 c 0.4519,0.12615 9.6144,2.07634 20.6015,8.69018 6.5129,3.92051 13.667,10.77698 20.0279,16.3277 12.2453,10.68559 21.5514,28.81111 17.6858,25.29727 l 2.8526,15.56672 -0.8526,20.94584 c -0.012,0.3017 -0.085,10.72262 -2.7299,22.00166 -1.2464,5.31526 -3.4135,11.63081 -4.3404,18.30958 -1.5985,11.51837 -5.7587,25.53947 -9.7941,37.39708 -2.7648,8.12385 -5.2865,18.32852 -8.7911,24.9307 -2.9464,5.55067 -6.6614,12.04717 -8.0225,17.52456 -1.1662,4.69316 -4.6024,9.07339 -6.115,13.02706 -4.8166,12.58994 -10.4078,20.85446 -10.5222,21.12451 l -5.313,12.54414 -13.3424,19.45586 c -0.072,0.10483 -2.3311,2.38009 -2.7608,-0.82684 -0.6604,-4.92937 6.538,-14.40272 9.6582,-26.51667 1.1347,-4.40514 3.0523,-9.15945 2.8891,-14.17143 -0.134,-4.11304 -0.3223,-8.3996 0.063,-12.8091 1.3986,-16.00819 -6.9549,-33.63663 -5.6355,-50.46499 0.6635,-8.46222 3.1655,-12.87964 3.4016,-21.007 0.1711,-5.88946 2.5395,-11.62661 2.7013,-17.11813 0.2025,-6.87327 0.081,-13.36174 -1.1557,-19.28245 -4.5853,-21.94769 -11.2884,-35.83642 -11.4763,-36.11854 l -16.38882,-24.60746 -17.61121,-19.9051 c -0.39817,-0.45003 -42.67842,-36.29946 -51.38225,-35.8513 -11.64394,0.59955 11.5797,-4.33649 33.93205,-5.22325 16.99266,-0.67413 33.48177,2.68023 33.76535,2.7594 z"
       id="rect4018"
       inkscape:connector-curvature="0"
       sodipodi:nodetypes="ssssccsssssssscsssssssssscssss" />
    <path
       style="fill:#204a87"
       d="m 334.31515,232.21934 c 55.38319,-28.33036 138.63685,3.38999 164.84655,42.22656 6.89653,10.21904 12.41495,14.64506 21.29395,29.17086 0,0 11.09436,18.75587 10.10575,23.08189 -0.91265,3.99364 -16.38583,-2.11622 -19.12886,-0.10799 -8.06098,5.9016 -17.12863,3.4704 -26.74769,8.48582 0.34424,0.30189 -10.49847,5.65419 -13.96898,15.30001 -1.4289,3.97143 -5.55805,7.40227 -5.06412,11.46624 3.34825,27.5489 1.43986,26.89916 1.34825,27.5489 l 14.4779,39.16253 17.49429,34.07442 7.24236,16.07071 5.05695,11.35599 17.34728,21.21817 -16.0666,8.83325 -6.35713,9.32354 L 497,625.04705 c -2.63321,45.86997 -20.43806,70.1266 -34.22706,75.12097 -30.07341,10.89256 -35.97107,13.33704 -60.88636,1.19418 -0.23199,0 -8.7942,-6.08285 -13.96301,-16.05036 -4.21432,-8.12684 -3.83448,-30.93629 -3.83448,-30.93629 0,0 -1.53017,-12.72011 -1.9933,-19.28566 -0.70238,-9.95743 -0.0876,-20.37019 -0.39237,-31.87616 -0.62001,-23.40635 0.84094,-43.89905 -2.53955,-60.48547 -3.15427,-15.47644 -11.30781,-27.59243 -11.59244,-27.68121 l -20.13642,-6.28053 12.66749,-33.69017 9.13195,-27.62774 4.26982,-18.76896 L 375,398.8202 c 0.0241,-0.48191 -8.17071,-59.61542 -28.93616,-64.0328 l -11.22379,-4.38761 -12.72689,-0.70736 c -9.92932,-0.55187 -37.01488,18.18133 -45.16486,15.27151 -4.7193,-1.68498 3.58355,-27.56077 3.58355,-27.56077 3.43744,-21.89109 26.06604,-72.86249 53.7833,-85.18383 z"
       id="rect4021"
       inkscape:connector-curvature="0"
       sodipodi:nodetypes="cscsscsssccccccccscscssssccccsscsssc" />
    <path
       style="fill:#204a87"
       d="m 307.21574,344.76088 9.69444,-3.45018 11.33769,0.30401 c 8.29515,-0.0223 13.37601,1.38388 18.45687,8.5044 12.89499,24.47824 13.33717,67.70697 13.03887,68.95439 l -8.54061,35.71453 c -0.14716,0.6154 -6.81152,13.00337 -11.63934,25.33234 -4.95821,12.66194 -8.0574,25.12274 -8.67581,24.98281 l -24.11741,-5.45702 -17.98327,-14.54298 c -0.52354,-0.42339 -6.53032,-8.27545 -10.11547,-15.98361 -3.2443,-6.97517 -4.153,-13.727 -4.1997,-14.33154 l -1.2234,-15.84221 4.7492,-56.08518 -1.5258,-22.35604 c -0.041,-0.59859 6.74111,-6.08363 13.89932,-9.62195 8.14401,-4.0256 16.84442,-6.12177 16.84442,-6.12177 z"
       id="rect4024"
       inkscape:connector-curvature="0"
       sodipodi:nodetypes="ccccsssscsssccssc" />
    <path
       style="fill:#ffffff"
       d="m 338.15223,370.96539 c 0,5.57892 -3.57217,6.96131 -13.36658,3.67295 -14.94624,-5.01802 -16.938,-9.03009 -16.938,-9.03009 0,0 8.21248,-4.0301 16.58086,-4.0301 8.36838,0 13.72372,9.38724 13.72372,9.38724 z"
       id="path4027"
       inkscape:connector-curvature="0"
       sodipodi:nodetypes="sscss" />
    <path
       style="fill:#3465a4"
       d="m 530,371.79077 c 0,5.67834 -2.14422,16.97365 -0.89418,29.68466 1.47374,14.98568 1.76557,26.17808 2.56399,36.37334 l 1.25966,16.08507 c 0.2058,2.62796 -1.45554,7.76006 -2.14483,12.15369 -0.99352,6.33286 -3.87042,11.77467 -5.07035,11.77467 -1.46401,0 -5.56281,-14.70893 -7.74304,-17.82927 -1.64386,-2.35268 -3.41523,-5.22349 -5.19939,-8.05624 -6.39454,-10.1528 -13.80111,-25.75109 -19.55025,-39.4747 -4.07326,-9.72319 -7.02333,-19.67021 -8.67173,-24.15392 -2.17068,-5.90431 -3.47845,-11.74771 -3.47845,-16.5573 0,-14.5511 2.24674,-21.90602 12.23007,-27.19244 1.65479,-0.87626 3.52215,-1.75064 5.62707,-2.6647 2.07554,-0.9013 0.40706,3.5e-4 4.69753,-0.97337 7.5912,-1.72281 22.24878,-4.51662 26.0979,-1.63501 0.77,0.57645 3.36121,1.32104 3.8052,2.20043 3.29899,6.53408 -3.5292,22.51093 -3.5292,30.26509 z"
       id="path4033"
       inkscape:connector-curvature="0"
       sodipodi:nodetypes="sssssssssssssssss" />
    <path
       style="fill:#ffffff"
       d="m 518.10398,363.96935 c -1.69134,2.05666 -5.10496,6.39286 -12.10714,6.39286 -7.00218,0 -11.25,-5.73006 -11.25,-8.39286 0,-2.6628 7.4621,-7.32143 14.46429,-7.32143 7.00218,0 14.60714,2.37291 8.89285,9.32143 z"
       id="path4030"
       inkscape:connector-curvature="0"
       sodipodi:nodetypes="sssss" />
    <path
       style="fill:#204a87"
       d="m 579.7196,532.09565 7.4703,-3.6541 c 4.699,-2.29857 9.8468,-4.40007 9.1305,-3.07492 -2.1769,4.02744 -24.6779,20.74575 -30.0886,23.0536 -8.6276,3.67992 -19.6313,7.74349 -29.20339,8.98281 -5.08312,0.65812 -9.77312,0.89093 -13.32441,0.89782 -5.93858,0.0115 -5.89893,0.27746 -6.62854,-0.23212 -5.56092,-3.8839 -3.35259,-8.65525 -3.76356,-13.90474 -0.40007,-5.10999 7.23036,-10.50065 13.09128,-11.38724 2.35891,-0.35683 4.06073,0.39748 5.30225,1.75673 0.88737,0.97153 7.85823,2.16771 15.16837,3.02487 7.8736,0.92323 31.4191,-4.76487 32.8458,-5.46271 z"
       id="path4051"
       inkscape:connector-curvature="0"
       sodipodi:nodetypes="ssssssssssss" />
    <path
       style="fill:#3465a4"
       d="m 298.70193,563.6542 -8.13467,1.72763 c -5.117,1.08673 -10.46584,2.60522 -9.08497,3.20712 4.19675,1.82934 32.21992,1.12323 37.903,-0.39488 9.06188,-2.42071 20.23121,-6.00403 28.53232,-10.92868 4.40817,-2.61518 8.24464,-5.32292 11.04521,-7.50661 4.68319,-3.65167 4.81591,-3.41781 5.07629,-4.2688 1.98457,-6.48615 -2.69548,-8.88188 -5.60783,-13.26872 -2.83494,-4.27026 -12.16618,-3.8113 -17.32763,-0.89657 -2.0774,1.17314 -2.95245,2.81614 -3.09215,4.65174 -0.0998,1.312 -4.85141,6.55092 -10.07911,11.73203 -5.63065,5.5805 -27.67697,15.61581 -29.23047,15.94574 z"
       id="path4051-3"
       inkscape:connector-curvature="0"
       sodipodi:nodetypes="ssssssssssss" />
    <path
       style="fill:#000000"
       d="m 298.88659,514.93362 3.17422,-4 13.62405,4 c 1.23065,0.36132 1.10061,1.90292 2.31515,2.31515 6.1887,2.10054 12.21048,0.75539 12.16957,3.35326 -0.0806,5.11883 -12.16957,14.01644 -12.16957,14.01644 -1.04804,0.73938 -1.06744,2.01804 -2.31515,2.31515 l -16.79827,4 c -0.47193,0.11238 -8.19092,0.0762 -17.56198,4.90923 -5.83631,3.01 -11.14641,12.94434 -15.47011,16.63268 -7.0882,6.04664 -11.5253,5.43215 -11.2831,5.00008 l 6.0915,-10.86646 4.22,-7.52809 31.68854,-31.83229 c 0.90487,-0.90898 1.03256,-2.31515 2.31515,-2.31515 z"
       id="rect4071"
       inkscape:connector-curvature="0"
       sodipodi:nodetypes="scsssssssssccss" />
  </g>
</svg>
